<?xml version="1.0" encoding="UTF-8"?><svg id="Calque_1" xmlns="http://www.w3.org/2000/svg" viewBox="0 0 715.7 90.24"><defs><style>.cls-1{fill:#0d0c0f;}</style></defs><path class="cls-1" d="m76.98,77l13.17,13.18h-26.92l-2.36-2.81-10.56-12.57-.8-.95-3.26,1.38-5.02,2.13v-16.09l-7.1,3.17-8.39,3.75-.19.09.12-.14,19.44-23.01,21.3,21.31c5.46-5.45,8.85-12.99,8.85-21.31,0-16.62-13.53-30.14-30.15-30.14s-30.14,13.52-30.14,30.14c0,9.22,4.15,17.48,10.69,23l-9.65,11.42C6.22,71.26,0,58.89,0,45.11,0,20.23,20.23,0,45.11,0s45.11,20.23,45.11,45.11c0,12.45-5.07,23.73-13.24,31.9Z"/><g><path class="cls-1" d="m110.98,74.14c-1.82,0-3.03-1.44-2.7-3.23l1.58-8.78c.32-1.78,2.06-3.23,3.87-3.23h36.51c1.09,0,2.13-.87,2.33-1.94l.49-2.75c.19-1.07-.53-1.94-1.62-1.94h-26.26c-8.53,0-14.21-6.79-12.7-15.18l1.07-5.93c1.51-8.38,9.66-15.18,18.18-15.18h38.82c1.82,0,3.03,1.45,2.7,3.24l-1.51,8.36c-.32,1.78-2.06,3.23-3.87,3.23h-35.52c-1.09,0-2.13.86-2.32,1.94l-.66,3.66c-.19,1.07.53,1.94,1.62,1.94h26.26c8.53,0,14.21,6.8,12.7,15.18l-.98,5.44c-1.51,8.38-9.66,15.18-18.18,15.18h-1.7s-38.11,0-38.11,0Z"/><path class="cls-1" d="m238.27,24.3l-8.41,46.52c-.34,1.86-2.09,3.33-3.98,3.33h-10.83c-1.04,0-1.95-.46-2.5-1.26l-16.14-28.37c-.07-.1-.21-.09-.25-.08-.09.02-.14.07-.15.15h0s-4.74,26.23-4.74,26.23c-.34,1.86-2.09,3.32-3.99,3.32h-9.81c-1.95,0-3.29-1.58-2.94-3.51l8.41-46.52c.34-1.87,2.09-3.33,3.98-3.33h12.51c1.05,0,1.96.46,2.5,1.26l14.83,26.35c.07.1.2.09.24.08.06-.01.14-.05.16-.15l4.37-24.21c.34-1.87,2.09-3.33,3.98-3.33h9.81c1.96,0,3.28,1.59,2.94,3.51Z"/><path class="cls-1" d="m303.68,34.87l-4.55,25.2c-1.4,7.76-8.97,14.08-16.87,14.08h-30.21c-8.07,0-13.34-6.47-11.93-14.26l4.55-25.2c1.4-7.76,8.97-14.08,16.87-14.08h30.21c8.07,0,13.34,6.47,11.93,14.26Zm-46.21,24.22c.18.21.45.33.77.33h22.75c.73,0,1.46-.61,1.59-1.33l3.93-21.8c.06-.32,0-.6-.19-.82-.18-.21-.45-.33-.77-.33h-22.74c-.73,0-1.46.61-1.59,1.33l-3.94,21.8c-.06.32,0,.6.18.82Z"/><path class="cls-1" d="m397.79,23.93l-26.38,48.04c-.71,1.31-2.15,2.18-3.58,2.18h-10.36c-1.49,0-2.66-.93-2.93-2.31l-4.65-23.84c-.03-.16-.17-.19-.21-.2-.06,0-.16,0-.22.1l-13.41,24.09c-.72,1.29-2.15,2.16-3.56,2.16h-10.36c-1.49,0-2.67-.94-2.93-2.34l-9.02-48.04c-.12-.66.08-1.37.56-1.95.52-.62,1.27-.99,2.03-.99h12.24c1.49,0,2.66.93,2.93,2.32l4.69,24.33c.03.16.17.19.22.2.05.01.16,0,.22-.1l13.55-24.67c.71-1.31,2.15-2.18,3.57-2.18h8.52c1.49,0,2.67.93,2.93,2.33l4.59,24.42c.03.16.18.2.22.2.07.01.16,0,.22-.1l13.62-24.58c.73-1.32,2.13-2.17,3.57-2.17h12.25c.74,0,1.38.35,1.73.94.37.63.35,1.44-.06,2.16Z"/><path class="cls-1" d="m457.17,19.2l-1.51,8.36c-.32,1.78-2.06,3.23-3.87,3.23h-16.05c-.36,0-.71.29-.77.65l-7.14,39.48c-.32,1.78-2.06,3.23-3.87,3.23h-10.97c-1.82,0-3.03-1.44-2.7-3.23l7.14-39.48c.07-.36-.18-.65-.54-.65h-16.05c-1.82,0-3.03-1.44-2.7-3.23l1.51-8.36c.32-1.78,2.06-3.23,3.87-3.23h50.97c1.81,0,3.02,1.44,2.7,3.23Z"/><path class="cls-1" d="m515.18,34.99l-2.15,11.91c-.93,5.14-4.66,9.87-9.73,12.33-.09.04-.13.12-.13.14l6.08,10.67c.47.84.47,1.82,0,2.64-.48.81-1.34,1.3-2.29,1.3-5.27,0-7.06.14-11.57.14-2.81,0-4.04-.26-4.75-1.69l-5.56-10.96c-.16-.31-.48-.49-.87-.49h-11.95c-.08.01-.18.1-.19.18l-1.75,9.67c-.34,1.86-2.09,3.32-3.98,3.32h-9.87c-1.96,0-3.28-1.59-2.93-3.51l8.42-46.59c.33-1.83,2.12-3.33,3.98-3.33h37.33c8.01,0,13.35,6.4,11.92,14.27Zm-17.54.43c-.31-.37-.79-.58-1.34-.58h-19.32c-.08,0-.18.08-.19.16l-2.14,11.85s0,.02,0,.02l19.3-.03c1.21,0,2.38-.97,2.6-2.17l1.42-7.83c.1-.54-.02-1.05-.33-1.42Z"/><path class="cls-1" d="m542.42,24.28l-8.41,46.54c-.34,1.86-2.09,3.32-3.98,3.32h-9.88c-.95,0-1.77-.37-2.33-1.04-.56-.67-.77-1.54-.6-2.47l8.41-46.54c.34-1.86,2.09-3.33,3.98-3.33h9.89c1.95,0,3.28,1.59,2.93,3.51Z"/><path class="cls-1" d="m597.6,24.18l-1.4,7.72c-.34,1.86-2.09,3.32-3.98,3.32h-25.19c-.73,0-1.45.61-1.59,1.33l-3.94,21.71c-.05.32.01.6.19.82s.45.33.77.33h25.19c1.96,0,3.28,1.59,2.93,3.51l-1.42,7.9c-.33,1.83-2.12,3.33-3.99,3.33h-29.02c-3.87,0-7.24-1.49-9.49-4.19s-3.12-6.29-2.42-10.09l4.63-25.16c1.42-7.74,8.97-14.03,16.85-14.03h28.95c1.96,0,3.28,1.59,2.93,3.51Z"/><path class="cls-1" d="m658.64,23.51l-24.91,24.01c-.06.05-.07.1-.06.11l16.14,23.87c.32.48.33,1.1.04,1.65-.34.64-1.01,1.05-1.71,1.05h-15.4c-1.04,0-1.95-.46-2.49-1.26l-9.14-13.52-6.63,6.35c-.25.24-.42.54-.48.85l-.76,4.18c-.34,1.86-2.09,3.33-3.98,3.33h-9.88c-1.96,0-3.28-1.59-2.93-3.51l8.4-46.54c.34-1.86,2.09-3.32,3.98-3.32h9.88c1.96,0,3.28,1.59,2.93,3.51l-3.25,17.96h0s.02,0,.03-.02l21.1-20.34c.77-.75,1.79-1.18,2.8-1.18h15.4c1.45,0,2.03,1.7.92,2.79Z"/><path class="cls-1" d="m715.64,24.3l-1.36,7.52c-.34,1.86-2.09,3.32-3.98,3.32h-31.97c-.73,0-1.46.61-1.59,1.33l-.6,3.3c-.06.32,0,.6.19.82.18.21.45.33.77.33h23.63c3.87,0,7.24,1.49,9.5,4.19,2.25,2.7,3.12,6.27,2.43,10.07l-.88,4.89c-1.4,7.76-8.97,14.08-16.87,14.08h-35.82c-1.95,0-3.28-1.59-2.93-3.51l1.42-7.9c.34-1.86,2.09-3.33,3.99-3.33h32.85c.73,0,1.46-.61,1.59-1.33l.44-2.47c.06-.32,0-.61-.19-.82s-.45-.33-.77-.33h-23.63c-3.87,0-7.24-1.49-9.5-4.19-2.25-2.7-3.12-6.27-2.43-10.07l.97-5.34c1.4-7.76,8.97-14.08,16.87-14.08h34.94c1.95,0,3.28,1.58,2.94,3.51Z"/></g></svg>